<svg width="24" height="25" viewBox="0 0 24 25" fill="none" xmlns="http://www.w3.org/2000/svg">
<path d="M6 17.0117H12V15.0117H6V17.0117ZM9 13.0117H15V11.0117H9V13.0117ZM12 9.01172H18V7.01172H12V9.01172ZM5 21.0117C4.45 21.0117 3.97917 20.8159 3.5875 20.4242C3.19583 20.0326 3 19.5617 3 19.0117V5.01172C3 4.46172 3.19583 3.99089 3.5875 3.59922C3.97917 3.20755 4.45 3.01172 5 3.01172H19C19.55 3.01172 20.0208 3.20755 20.4125 3.59922C20.8042 3.99089 21 4.46172 21 5.01172V19.0117C21 19.5617 20.8042 20.0326 20.4125 20.4242C20.0208 20.8159 19.55 21.0117 19 21.0117H5ZM5 19.0117H19V5.01172H5V19.0117Z" fill="#7900BA"/>
</svg>