<svg width="23" height="23" viewBox="0 0 23 23" fill="none" xmlns="http://www.w3.org/2000/svg">
<path d="M10.4574 20.9508H8.98525C5.221 20.9508 3.3394 20.9508 2.1697 19.759C1 18.5673 1 16.6489 1 12.8133C1 8.97763 1 7.05928 2.1697 5.86753C3.3394 4.67578 5.221 4.67578 8.98525 4.67578H12.9784C16.7427 4.67578 18.6253 4.67578 19.795 5.86753C20.6949 6.78418 20.9017 8.13133 20.95 10.4508" stroke="#514E61" stroke-width="1.5" stroke-linecap="round" stroke-linejoin="round"/>
<path d="M19.9178 19.9241L22 22M15.7 4.675L15.595 4.3495C15.0752 2.7325 14.8159 1.924 14.1974 1.462C13.5779 1 12.7568 1 11.1115 1H10.8353C9.1921 1 8.36995 1 7.7515 1.462C7.132 1.924 6.87265 2.7325 6.3529 4.3495L6.25 4.675M21.0056 17.3023C21.0139 16.8108 20.9243 16.3226 20.7419 15.8661C20.5595 15.4096 20.2881 14.9939 19.9434 14.6434C19.5988 14.2929 19.1878 14.0145 18.7344 13.8245C18.2811 13.6345 17.7944 13.5366 17.3028 13.5366C16.8112 13.5366 16.3246 13.6345 15.8712 13.8245C15.4179 14.0145 15.0069 14.2929 14.6622 14.6434C14.3175 14.9939 14.0461 15.4096 13.8638 15.8661C13.6814 16.3226 13.5917 16.8108 13.6 17.3023C13.6164 18.2736 14.0137 19.1995 14.7063 19.8806C15.3989 20.5616 16.3314 20.9433 17.3028 20.9433C18.2742 20.9433 19.2067 20.5616 19.8993 19.8806C20.592 19.1995 20.9893 18.2736 21.0056 17.3023Z" stroke="#514E61" stroke-width="1.5" stroke-linecap="round" stroke-linejoin="round"/>
</svg>
